<?xml version="1.0" encoding="iso-8859-1"?>
<!-- Generator: Adobe Illustrator 19.0.0, SVG Export Plug-In . SVG Version: 6.00 Build 0)  -->
<svg xmlns="http://www.w3.org/2000/svg" xmlns:xlink="http://www.w3.org/1999/xlink" version="1.1" id="Capa_1" x="0px" y="0px" viewBox="0 0 512 512" style="enable-background:new 0 0 512 512;" xml:space="preserve" width="512px" height="512px">
<path style="fill:#4BC999;" d="M434.529,477.993c0,0-55.862,12.152-105.786-2.862c-30.839-9.259-51.331-26.461-62.488-38.247v56.841  h-20.493v-56.841c-11.172,11.785-31.665,28.987-62.504,38.247c-49.939,15.013-105.801,2.862-105.801,2.862  s39.915-40.925,89.854-55.938c6.871-2.066,13.53-3.52,19.926-4.484c-17.325-4.009-37.099-10.178-58.28-19.651  C57.347,365.918,0,309.948,0,309.948s79.952,5.372,151.562,37.374c25.237,11.28,45.654,24.166,61.524,36.15  c-18.61-20.722-41.016-49.556-62.595-87.068c-50.016-87.006-74.334-184.069-74.702-185.583  c0.934,0.903,72.666,70.845,122.758,157.959c15.274,26.585,26.585,51.362,34.909,72.972c-4.851-27.747-8.57-61.769-8.57-100.995  C224.886,127.182,256,18.274,256,18.274s31.114,108.908,31.114,222.483c0,39.225-3.719,73.248-8.571,100.995  c8.326-21.61,19.621-46.388,34.91-72.972c50.077-87.114,121.81-157.056,122.758-157.959c-0.367,1.516-24.702,98.577-74.701,185.583  c-21.564,37.496-43.985,66.314-62.565,87.038c15.871-11.984,36.287-24.855,61.494-36.119  c65.381-29.216,137.695-36.241,149.801-37.236c0.735-0.061,1.255-0.107,1.531-0.122c0.153-0.015,0.229-0.015,0.229-0.015  s-57.347,55.969-128.957,87.97c-21.182,9.473-40.94,15.642-58.28,19.651c0,0,0.275,0.046,0.781,0.122  c6.138,0.964,12.549,2.373,19.146,4.362c31.772,9.55,59.474,29.599,75.436,42.914c0.505,0.413,0.995,0.827,1.47,1.239  c3.857,3.259,6.963,6.075,9.152,8.127c0.29,0.275,0.551,0.521,0.811,0.78C433.488,476.937,434.529,477.993,434.529,477.993z"/>
<g>
	<path style="fill:#41B787;" d="M213.088,383.471L213.088,383.471c9.437-9.437,10.259-24.484,1.848-34.846   c-15.004-18.487-31.43-41.498-47.402-69.263c-27.137-47.208-46.705-97.369-58.992-133.629   c-19.03-21.537-32.353-34.528-32.751-34.914c0.367,1.516,24.687,98.577,74.702,185.583   C157.979,309.418,191.416,361.8,213.088,383.471z"/>
	<path style="fill:#41B787;" d="M233.458,341.752c10.445-10.445,15.491-25.146,13.553-39.791c-3.035-22.929-5.08-49.157-5.08-78.246   c0-69.476,11.643-137.197,20.683-179.32c-3.863-16.502-6.611-26.122-6.611-26.122s-31.114,108.908-31.114,222.483   C224.888,250.831,226.309,305.48,233.458,341.752L233.458,341.752z"/>
	<path style="fill:#41B787;" d="M278.545,341.752c10.741-10.741,19.309-23.427,25.382-37.35   c7.137-16.361,15.876-34.071,26.57-52.664c35.168-61.178,81.014-113.884,105.526-140.161c0.109-0.428,0.174-0.691,0.19-0.757   c-0.949,0.903-72.681,70.845-122.758,157.959C308.629,277.171,284.85,320.784,278.545,341.752L278.545,341.752z"/>
	<path style="fill:#41B787;" d="M512,309.948c0,0-57.347,55.969-128.957,87.971c-21.182,9.473-40.94,15.642-58.28,19.651   c0,0,0.475-0.321,1.27-0.888c16.009-11.294,33.533-20.202,51.944-26.875c7.163-2.587,14.54-5.54,22.115-8.938   c46.48-20.768,86.945-51.637,109.627-70.738c0.184-0.015,0.367-0.031,0.521-0.046c0.735-0.061,1.255-0.092,1.531-0.122   C511.924,309.948,512,309.948,512,309.948z"/>
	<path style="fill:#41B787;" d="M187.238,417.57c0.742-0.324,1.466-0.819,2.174-1.438c7.158-6.243,4.299-18.099-4.794-20.841   c-12.116-3.654-25.08-8.359-38.618-14.414c-42.3-18.903-79.614-46.165-103.08-65.318c-25.658-4.45-42.919-5.611-42.919-5.611   s57.347,55.969,128.957,87.97C141.892,403.704,175.592,413.989,187.238,417.57z"/>
	<path style="fill:#41B787;" d="M434.529,477.993c0,0-55.862,12.152-105.786-2.862c-22.62-6.795-39.67-17.845-51.545-27.916   c-4.332-3.658-7.959-7.193-10.943-10.331l0.122-0.122c3.107-3.122,6.841-5.25,10.821-6.382c7.56-2.188,15.993-0.78,22.651,4.301   c11.432,8.738,26.676,17.616,45.944,23.416c26.109,7.851,53.811,8.265,74.335,6.871h0.015c0.49,0.413,0.98,0.827,1.455,1.239   c3.857,3.259,6.964,6.076,9.152,8.127c0.29,0.275,0.551,0.521,0.811,0.78C433.488,476.937,434.529,477.993,434.529,477.993z"/>
	<path style="fill:#41B787;" d="M256.536,426.019v67.708h-10.775v-56.841c-11.172,11.785-31.665,28.987-62.504,38.247   c-49.939,15.013-105.801,2.862-105.801,2.862s7.041-7.209,18.886-16.682c9.948,1.913,59.306,10.208,103.964-3.214   C226.08,450.337,244.629,437.069,256.536,426.019z"/>
</g>
<g>
</g>
<g>
</g>
<g>
</g>
<g>
</g>
<g>
</g>
<g>
</g>
<g>
</g>
<g>
</g>
<g>
</g>
<g>
</g>
<g>
</g>
<g>
</g>
<g>
</g>
<g>
</g>
<g>
</g>
</svg>
