 <svg xmlns="http://www.w3.org/2000/svg" width="50" height="50"><g fill="none" fill-rule="evenodd"><path fill="#FFF" d="M3.2238 22.4419l-1.224 1.224v2.641l1.224 1.224 4.438 4.438 17.031 17.031h4.978l3.478-3.589.012-4.69-8.532-8.531h17.601l3.932-3.933 2.366-2.365v-1.797l-6.298-6.299h-17.587l8.518-8.517-.012-4.689-3.478-3.59h-4.978"/><path stroke="#FFF" stroke-width="2" d="M3.2238 22.4419l-1.224 1.224v2.641l1.224 1.224 4.438 4.438 17.031 17.031h4.978l3.478-3.589.012-4.69-8.532-8.531h17.601l3.932-3.933 2.366-2.365v-1.797l-6.298-6.299h-17.587l8.518-8.517-.012-4.689-3.478-3.59h-4.978z" stroke-linecap="round" stroke-linejoin="round"/><path fill="#FFF" d="M10.2061 20.5484l-4.438 4.438 4.438 4.438 14.367 14.367h3.598v-2.97l-8.636-8.636v-2.308l-4.171-4.171v-1.44l4.171-4.171v-2.308l8.636-8.636v-2.97h-3.598"/><path fill="#FFF" d="M17.1628 24.2734v1.439l2.879 2.879h10.255l-2.879-2.879v-1.439l2.879-2.879h-10.255"/><path fill="#FFF" d="M29.2772 24.2734v1.439l2.432 2.433.447.446h7.863l2.879-2.879v-1.439l-2.879-2.879h-7.863l-.447.447"/><path d="M0 0h50v50H0z"/><path d="M0 100h50v50H0z"/></g></svg>