 <svg xmlns="http://www.w3.org/2000/svg" width="50" height="50"><g fill="none" fill-rule="evenodd"><path opacity=".6" fill="#C6D8F5" d="M3.2238 22.4419l-1.224 1.224v2.641l1.224 1.224 4.438 4.438 17.031 17.031h4.978l3.478-3.589.012-4.69-8.532-8.531h17.601l3.932-3.933 2.366-2.365v-1.797l-6.298-6.299h-17.587l8.518-8.517-.012-4.689-3.478-3.59h-4.978"/><path stroke="#2F4777" stroke-width="2" d="M3.2238 22.4419l-1.224 1.224v2.641l1.224 1.224 4.438 4.438 17.031 17.031h4.978l3.478-3.589.012-4.69-8.532-8.531h17.601l3.932-3.933 2.366-2.365v-1.797l-6.298-6.299h-17.587l8.518-8.517-.012-4.689-3.478-3.59h-4.978z" stroke-linecap="round" stroke-linejoin="round"/></g></svg>