 <svg xmlns="http://www.w3.org/2000/svg" width="272" height="310" viewBox="0 0 272 310"><g fill="none" fill-rule="evenodd"><path fill="#FFFFFF" d="M20.007 14C18 14 16 16 16 18.752L16 45C16 48 18 49.007 20.007 49.007L40 49.007C40.665 49.007 41.6021 47.8696 41.4171 47.2296L41 45 48 51C49 52 50 51.858 50 51L50 18C50 16 49 14 46 14L20.007 14zM210.028855 18L259.971145 18C261.092087 18 262 18.9775434 262 20.1820165L262 27.8179835C262 29.0235476 261.092087 30 259.971145 30L210.028855 30C208.908927 30 208 29.0235476 208 27.8179835L208 20.1820165C208 18.9775434 208.908927 18 210.028855 18M199.992497 34L260.007503 34C261.108358 34 262 34.9775434 262 36.1820165L262 43.8179835C262 45.0235476 261.108358 46 260.007503 46L199.992497 46C198.892639 46 198 45.0235476 198 43.8179835L198 36.1820165C198 34.9775434 198.892639 34 199.992497 34"/></g></svg>