 <svg xmlns="http://www.w3.org/2000/svg" xmlns:xlink="http://www.w3.org/1999/xlink" width="184" height="110" viewBox="0 0 184 110"><g fill="none" fill-rule="evenodd"><g transform="translate(1 1)"><polygon fill="#E4E9F8" points="67.788 25.389 71.963 25.389 71.963 13.836 67.788 13.836"/><polygon stroke="#1E2126" stroke-width="2" points="67.788 25.389 71.963 25.389 71.963 13.836 67.788 13.836" stroke-linecap="round" stroke-linejoin="round"/><polygon stroke="#1E2126" stroke-width="2" points="58.049 14.487 81.703 14.487 81.703 6.883 58.049 6.883" stroke-linecap="round" stroke-linejoin="round"/><polygon fill="#FFFFFF" points="64.385 16.176 75.367 16.176 75.367 5.194 64.385 5.194"/><g transform="translate(0 .617)"><path stroke="#1E2126" stroke-width="2" d="M72.4105,10.0681 C72.4105,11.4681 71.2755,12.6021 69.8755,12.6021 C68.4755,12.6021 67.3415,11.4681 67.3415,10.0681 C67.3415,8.6691 68.4755,7.5341 69.8755,7.5341 C71.2755,7.5341 72.4105,8.6691 72.4105,10.0681 Z" stroke-linecap="round" stroke-linejoin="round"/><polygon stroke="#1E2126" stroke-width="2" points="64.385 15.559 75.367 15.559 75.367 4.577 64.385 4.577" stroke-linecap="round" stroke-linejoin="round" mask="url(#b)"/><polygon stroke="#1E2126" stroke-width="2" points="7.957 84.753 133.186 84.753 133.186 26.314 7.957 26.314" stroke-linecap="round" stroke-linejoin="round" mask="url(#b)"/><polygon fill="#D5DBED" points="119.316 101.207 125.639 101.207 125.639 81.009 119.316 81.009" mask="url(#b)"/><polygon stroke="#1E2126" stroke-width="2" points="119.316 101.207 125.639 101.207 125.639 81.009 119.316 81.009" stroke-linecap="round" stroke-linejoin="round" mask="url(#b)"/><path fill="#FFFFFF" d="M127.8519,105.8503 L117.1029,105.8503 C115.8799,105.8503 114.8899,104.8593 114.8899,103.6373 C114.8899,102.4143 115.8799,101.4243 117.1029,101.4243 L127.8519,101.4243 C129.0749,101.4243 130.0649,102.4143 130.0649,103.6373 C130.0649,104.8593 129.0749,105.8503 127.8519,105.8503" mask="url(#b)"/><path stroke="#1E2126" stroke-width="2" d="M127.8519 105.8503L117.1029 105.8503C115.8799 105.8503 114.8899 104.8593 114.8899 103.6373 114.8899 102.4143 115.8799 101.4243 117.1029 101.4243L127.8519 101.4243C129.0749 101.4243 130.0649 102.4143 130.0649 103.6373 130.0649 104.8593 129.0749 105.8503 127.8519 105.8503zM130.0648 84.283L114.8898 84.283 114.8898 63.417C114.8898 59.226 118.2868 55.829 122.4768 55.829 126.6688 55.829 130.0648 59.226 130.0648 63.417L130.0648 84.283z" stroke-linecap="round" stroke-linejoin="round" mask="url(#b)"/><path fill="#FFFFFF" d="M123.7826,91.2019 L121.1726,91.2019 C116.6546,91.2019 112.9926,87.5399 112.9926,83.0219 L112.9926,73.4549 C112.9926,72.4509 113.8056,71.6369 114.8096,71.6369 L130.1436,71.6369 C131.1476,71.6369 131.9626,72.4509 131.9626,73.4549 L131.9626,83.0219 C131.9626,87.5399 128.3006,91.2019 123.7826,91.2019" mask="url(#b)"/><path stroke="#1E2126" stroke-width="2" d="M123.7826,91.2019 L121.1726,91.2019 C116.6546,91.2019 112.9926,87.5399 112.9926,83.0219 L112.9926,73.4549 C112.9926,72.4509 113.8056,71.6369 114.8096,71.6369 L130.1436,71.6369 C131.1476,71.6369 131.9626,72.4509 131.9626,73.4549 L131.9626,83.0219 C131.9626,87.5399 128.3006,91.2019 123.7826,91.2019 Z" stroke-linecap="round" stroke-linejoin="round" mask="url(#b)"/><path fill="#EFEFF4" d="M126.2709,80.5447 C126.2709,82.6407 124.5729,84.3387 122.4769,84.3387 C120.3819,84.3387 118.6829,82.6407 118.6829,80.5447 C118.6829,78.4487 120.3819,76.7507 122.4769,76.7507 C124.5729,76.7507 126.2709,78.4487 126.2709,80.5447" mask="url(#b)"/><path stroke="#1E2126" stroke-width="2" d="M126.2709 80.5447C126.2709 82.6407 124.5729 84.3387 122.4769 84.3387 120.3819 84.3387 118.6829 82.6407 118.6829 80.5447 118.6829 78.4487 120.3819 76.7507 122.4769 76.7507 124.5729 76.7507 126.2709 78.4487 126.2709 80.5447zM114.89 63.0105L124.234 71.6365M117.433 57.1082L130.075 68.7772M143.9457 88.1726L143.9457 90.1246C143.9457 93.6166 141.1147 96.4476 137.6227 96.4476L119.3157 96.4476" stroke-linecap="round" stroke-linejoin="round" mask="url(#b)"/><path fill="#E4E9F8" d="M140.1517,75.2878 L147.7397,75.2878 L147.7397,87.6048 C147.7397,88.1068 147.3337,88.5148 146.8317,88.5148 L141.0607,88.5148 C140.5587,88.5148 140.1517,88.1068 140.1517,87.6048 L140.1517,75.2878 Z" mask="url(#b)"/><path stroke="#1E2126" stroke-width="2" d="M140.1517,75.2878 L147.7397,75.2878 L147.7397,87.6048 C147.7397,88.1068 147.3337,88.5148 146.8317,88.5148 L141.0607,88.5148 C140.5587,88.5148 140.1517,88.1068 140.1517,87.6048 L140.1517,75.2878 Z" stroke-linecap="round" stroke-linejoin="round" mask="url(#b)"/><path fill="#FFFFFF" d="M123.7699,64.615 C123.7699,53.471 132.8029,44.439 143.9459,44.439 C155.0889,44.439 164.1219,53.471 164.1219,64.615 C164.1219,75.758 155.0889,84.79 143.9459,84.79 C132.8029,84.79 123.7699,75.758 123.7699,64.615" mask="url(#b)"/><path stroke="#1E2126" stroke-width="2" d="M123.7699,64.615 C123.7699,53.471 132.8029,44.439 143.9459,44.439 C155.0889,44.439 164.1219,53.471 164.1219,64.615 C164.1219,75.758 155.0889,84.79 143.9459,84.79 C132.8029,84.79 123.7699,75.758 123.7699,64.615 Z" stroke-linecap="round" stroke-linejoin="round" mask="url(#b)"/><path stroke="#1E2126" stroke-width="2" d="M147.7679 49.4314C146.5449 49.1234 145.2639 48.9604 143.9459 48.9604 135.3009 48.9604 128.2919 55.9694 128.2919 64.6154 128.2919 73.2594 135.3009 80.2684 143.9459 80.2684 152.5909 80.2684 159.5999 73.2594 159.5999 64.6154 159.5999 60.5514 158.0509 56.8504 155.5129 54.0684M151.6859 51.0046C152.2669 51.3366 152.8249 51.7036 153.3559 52.1046M179.2533 79.4431L179.2533 82.9351M181.0004 81.1892L177.5074 81.1892M139.0531 1.3826L139.0531 4.8746M140.7992 3.1287L137.3072 3.1287M102.8822 35.8054L102.0592 36.6284M98.766 39.9216L97.943 40.7446M102.8822 40.7449L102.0592 39.9219M98.766 36.6287L97.943 35.8057M157.0824 12.7898C157.0824 13.7548 156.3004 14.5368 155.3364 14.5368 154.3714 14.5368 153.5904 13.7548 153.5904 12.7898 153.5904 11.8258 154.3714 11.0438 155.3364 11.0438 156.3004 11.0438 157.0824 11.8258 157.0824 12.7898z" stroke-linecap="round" stroke-linejoin="round" mask="url(#b)"/></g></g></g></svg>