<?xml version="1.0" encoding="utf-8"?><svg version="1.1" id="Calque_1" xmlns="http://www.w3.org/2000/svg" xmlns:xlink="http://www.w3.org/1999/xlink" x="0px" y="0px" viewBox="-947 529 24 24" style="enable-background:new -947 529 24 24;" xml:space="preserve"><style type="text/css">.st0{fill:#FFFFFF;}</style><g><path class="st0" d="M-934.1,543.6h-1.8v-0.9c0-0.5,0.1-1,0.3-1.4c0.2-0.4,0.6-0.9,1.2-1.4c0.6-0.5,1-1,1.2-1.3c0.2-0.3,0.3-0.7,0.3-1.1c0-0.6-0.2-1.1-0.6-1.4c-0.4-0.3-0.9-0.5-1.5-0.5c-1.1,0-1.8,0.6-2.2,1.8l-1.6-0.7c0.3-0.8,0.8-1.5,1.5-2c0.7-0.5,1.5-0.8,2.4-0.8c1.1,0,2,0.3,2.8,1c0.7,0.7,1.1,1.5,1.1,2.6c0,0.5-0.1,1-0.4,1.5c-0.3,0.5-0.8,1.1-1.5,1.7c-0.7,0.7-1.1,1.3-1.1,2V543.6z M-933.8,546.6c0,0.4-0.1,0.6-0.4,0.9c-0.2,0.2-0.5,0.4-0.9,0.4c-0.3,0-0.6-0.1-0.9-0.4c-0.2-0.2-0.4-0.5-0.4-0.9c0-0.4,0.1-0.7,0.4-0.9c0.2-0.2,0.5-0.4,0.9-0.4c0.4,0,0.7,0.1,0.9,0.4C-933.9,546-933.8,546.3-933.8,546.6z"/></g></svg>