<?xml version="1.0" encoding="UTF-8" standalone="no"?>
<!-- Created with Inkscape (http://www.inkscape.org/) -->

<svg
   xmlns:dc="http://purl.org/dc/elements/1.1/"
   xmlns:cc="http://creativecommons.org/ns#"
   xmlns:rdf="http://www.w3.org/1999/02/22-rdf-syntax-ns#"
   xmlns:svg="http://www.w3.org/2000/svg"
   xmlns="http://www.w3.org/2000/svg"
   xmlns:sodipodi="http://sodipodi.sourceforge.net/DTD/sodipodi-0.dtd"
   xmlns:inkscape="http://www.inkscape.org/namespaces/inkscape"
   version="1.1"
   id="svg2"
   width="2326.3848"
   height="1014.0638"
   viewBox="0 0 2326.3847 1014.0639"
   sodipodi:docname="BetterDiscordSource3.svg"
   inkscape:version="0.92.4 (5da689c313, 2019-01-14)">
  <metadata
     id="metadata8">
    <rdf:RDF>
      <cc:Work
         rdf:about="">
        <dc:format>image/svg+xml</dc:format>
        <dc:type
           rdf:resource="http://purl.org/dc/dcmitype/StillImage" />
        <dc:title />
      </cc:Work>
    </rdf:RDF>
  </metadata>
  <defs
     id="defs6" />
  <sodipodi:namedview
     pagecolor="#191919"
     bordercolor="#666666"
     borderopacity="1"
     objecttolerance="10"
     gridtolerance="10"
     guidetolerance="10"
     inkscape:pageopacity="0"
     inkscape:pageshadow="2"
     inkscape:window-width="1360"
     inkscape:window-height="715"
     id="namedview4"
     showgrid="false"
     inkscape:snap-intersection-paths="true"
     inkscape:snap-object-midpoints="false"
     inkscape:object-paths="true"
     inkscape:snap-midpoints="true"
     inkscape:snap-smooth-nodes="true"
     inkscape:object-nodes="true"
     inkscape:snap-nodes="true"
     inkscape:snap-others="false"
     inkscape:zoom="0.35355339"
     inkscape:cx="1077.3634"
     inkscape:cy="429.69917"
     inkscape:window-x="-8"
     inkscape:window-y="-8"
     inkscape:window-maximized="1"
     inkscape:current-layer="svg2"
     showguides="true"
     inkscape:guide-bbox="true"
     fit-margin-top="0"
     fit-margin-left="0"
     fit-margin-right="0"
     fit-margin-bottom="0" />
  <flowRoot
     xml:space="preserve"
     id="flowRoot1088"
     style="font-style:normal;font-variant:normal;font-weight:normal;font-stretch:normal;font-size:40px;line-height:1.25;font-family:discord;-inkscape-font-specification:discord;letter-spacing:0px;word-spacing:0px;fill:#f9f9f9;fill-opacity:1;stroke:none"
     transform="translate(-1888.918,116.52478)"><flowRegion
       id="flowRegion1090"
       style="fill:#f9f9f9"><rect
         id="rect1092"
         width="1331.2196"
         height="550.71289"
         x="5305.0688"
         y="37.673519"
         style="fill:#f9f9f9" /></flowRegion><flowPara
       id="flowPara1094" /></flowRoot>  <flowRoot
     xml:space="preserve"
     id="flowRoot17"
     style="font-style:normal;font-variant:normal;font-weight:normal;font-stretch:normal;font-size:40px;line-height:1.25;font-family:'Uni Sans';-inkscape-font-specification:'Uni Sans';letter-spacing:0px;word-spacing:0px;fill:#000000;fill-opacity:1;stroke:none"
     transform="translate(-1888.918,116.52478)"><flowRegion
       id="flowRegion19"
       style="font-style:normal;font-variant:normal;font-weight:normal;font-stretch:normal;font-family:'Uni Sans';-inkscape-font-specification:'Uni Sans'"><rect
         id="rect21"
         width="2286.0527"
         height="843.89813"
         x="4940.5679"
         y="-184.19638"
         style="font-style:normal;font-variant:normal;font-weight:normal;font-stretch:normal;font-family:'Uni Sans';-inkscape-font-specification:'Uni Sans'" /></flowRegion><flowPara
       id="flowPara23" /></flowRoot>  <text
     xml:space="preserve"
     style="font-style:normal;font-variant:normal;font-weight:normal;font-stretch:normal;font-size:40px;line-height:1.25;font-family:discord;-inkscape-font-specification:discord;letter-spacing:0px;word-spacing:0px;fill:#000000;fill-opacity:1;stroke:none"
     x="3168.5459"
     y="319.6358"
     id="text31"><tspan
       sodipodi:role="line"
       id="tspan29"
       x="3168.5459"
       y="354.87579" /></text>
  <path
     style="opacity:1;vector-effect:none;fill:#c83232;fill-opacity:1;stroke:none;stroke-width:7.46142387;stroke-linecap:butt;stroke-linejoin:miter;stroke-miterlimit:4;stroke-dasharray:none;stroke-dashoffset:0;stroke-opacity:0.90196078"
     d="m 2018.0351,847.09119 -166.9726,166.97261 h 308.3496 l 166.9726,-166.97261 z"
     id="path149"
     inkscape:connector-curvature="0"
     inkscape:export-xdpi="92.5989"
     inkscape:export-ydpi="92.5989" />
  <path
     style="opacity:1;vector-effect:none;fill:#ff7832;fill-opacity:1;stroke:none;stroke-width:7.46142387;stroke-linecap:butt;stroke-linejoin:miter;stroke-miterlimit:4;stroke-dasharray:none;stroke-dashoffset:0;stroke-opacity:0.90196078"
     d="m 1474.9765,847.09119 -166.9707,166.97261 h 424.9883 l 166.9746,-166.97261 z"
     id="path1079"
     inkscape:connector-curvature="0"
     inkscape:export-xdpi="92.5989"
     inkscape:export-ydpi="92.5989" />
  <path
     style="opacity:1;vector-effect:none;fill:#32c864;fill-opacity:1;stroke:none;stroke-width:7.46142387;stroke-linecap:butt;stroke-linejoin:miter;stroke-miterlimit:4;stroke-dasharray:none;stroke-dashoffset:0;stroke-opacity:0.90196078"
     d="M 775.3281,847.09119 608.3554,1014.0638 h 229.1954 352.3847 L 1356.9101,847.09119 H 837.5508 Z"
     id="path1081"
     inkscape:connector-curvature="0"
     inkscape:export-xdpi="92.5989"
     inkscape:export-ydpi="92.5989" />
  <path
     inkscape:connector-curvature="0"
     id="path37"
     style="font-style:normal;font-variant:normal;font-weight:900;font-stretch:normal;font-size:192px;line-height:1.25;font-family:'Uni Sans';-inkscape-font-specification:'Uni Sans weight=255';letter-spacing:0px;word-spacing:0px;fill:#c83232;fill-opacity:1;stroke:none;stroke-width:5.53914499"
     d="m 1489.681,638.10952 c 70.192,90.39885 165.9085,136.13002 256.3073,136.13002 138.2571,0 291.4034,-79.76367 297.7845,-225.46535 8.5081,-185.05176 -125.4949,-231.84646 -259.4979,-256.30732 -58.4934,-12.76219 -97.8435,-34.03251 -99.9705,-70.19205 3.1906,-87.2083 138.2571,-90.39885 216.9572,-6.3811 L 2025.693,120.17729 C 1948.0563,25.524379 1859.7845,0 1768.3222,0 c -138.2571,0 -272.2601,77.636659 -272.2601,225.46537 0,143.57464 110.6056,220.14778 231.8465,239.29107 61.6839,8.50812 130.8124,32.96899 128.6854,75.50962 -5.3176,80.82721 -171.2261,76.57315 -246.7357,-14.88922 z"
     inkscape:export-xdpi="92.5989"
     inkscape:export-ydpi="92.5989" />
  <path
     sodipodi:nodetypes="ccccssssccccsssc"
     inkscape:connector-curvature="0"
     id="path35"
     d="m 848.6797,10.63611 v 293.52734 l 191.4335,191.4336 V 188.24158 h 96.7793 c 63.811,0 94.6524,30.84194 94.6524,79.76367 v 235.03711 c 0,48.92173 -29.7779,81.89062 -94.6524,81.89062 h -96.7793 -191.4316 v 178.67188 h 281.832 c 151.0193,1.0635 292.4668,-74.44574 292.4668,-247.79883 V 262.68884 c 0,-175.480111 -141.4475,-252.05273 -292.4668,-252.05273 z"
     style="font-style:normal;font-variant:normal;font-weight:900;font-stretch:normal;font-size:192px;line-height:1.25;font-family:'Uni Sans';-inkscape-font-specification:'Uni Sans weight=255';letter-spacing:0px;word-spacing:0px;fill:#fa7832;fill-opacity:1;stroke:none;stroke-width:5.53914499"
     inkscape:export-xdpi="92.5989"
     inkscape:export-ydpi="92.5989" />
  <path
     style="opacity:1;vector-effect:none;fill:#3296c8;fill-opacity:1;stroke:none;stroke-width:7.46142387;stroke-linecap:butt;stroke-linejoin:miter;stroke-miterlimit:4;stroke-dasharray:none;stroke-dashoffset:0;stroke-opacity:0.90196078"
     d="m 208.7168,10.63611 v 279.81836 l 190.6211,190.62304 h 0.8105 V 171.22595 h 110.6055 c 95.7164,0 92.5259,134.00391 0,134.00391 h -70.9864 v 137.19336 h 70.9864 c 96.2685,0 94.1513,154.20898 0,154.20898 H 208.7168 C 93.44547,596.63166 -5.4124392e-4,690.07767 0,805.349 5.633291e-4,920.61955 93.446251,1014.0643 208.7168,1014.0638 H 490.2871 L 657.2597,847.09119 H 208.7168 c -62.95342,0 -63.03248,-83.48633 0,-83.48633 h 204.2714 103.084 c 166.972,0 248.8626,-73.38224 268.0059,-194.62305 9.5716,-57.42985 -3.1906,-154.20998 -106.3516,-206.32226 54.2393,-27.65141 76.5731,-88.27218 77.6367,-122.30469 C 759.6172,96.780209 654.3286,10.63611 510.7539,10.63611 Z"
     id="path1083"
     inkscape:connector-curvature="0"
     inkscape:export-xdpi="92.5989"
     inkscape:export-ydpi="92.5989"
     sodipodi:nodetypes="cccccssccsscsccccccscccsc" />
</svg>
