<?xml version="1.0" encoding="utf-8"?>
<!-- Generator: Adobe Illustrator 19.0.0, SVG Export Plug-In . SVG Version: 6.00 Build 0)  -->
<svg version="1.1" id="Calque_1" xmlns="http://www.w3.org/2000/svg" xmlns:xlink="http://www.w3.org/1999/xlink" x="0px" y="0px"
	 viewBox="-947 529 24 24" style="enable-background:new -947 529 24 24;" xml:space="preserve">
<style type="text/css">
	.st0{fill:#7289DA;}
	.st1{fill:none;}
</style>
<path class="st0" d="M-927,535h-2.2c0.1-0.3,0.2-0.7,0.2-1c0-1.7-1.3-3-3-3c-1,0-2,0.5-2.5,1.3l-0.5,0.7l-0.5-0.7
	c-0.5-0.8-1.5-1.3-2.5-1.3c-1.7,0-3,1.3-3,3c0,0.3,0.1,0.7,0.2,1h-2.2c-1.1,0-2,0.9-2,2l0,11c0,1.1,0.9,2,2,2h16c1.1,0,2-0.9,2-2
	v-11C-925,535.9-925.9,535-927,535z M-932,533c0.5,0,1,0.5,1,1s-0.5,1-1,1s-1-0.5-1-1S-932.5,533-932,533z M-938,533
	c0.5,0,1,0.5,1,1s-0.5,1-1,1s-1-0.5-1-1S-938.5,533-938,533z M-927,548h-16v-2h16V548z M-927,543h-16v-6h5.1l-2.1,2.8l1.6,1.2
	l2.4-3.2l1-1.4l1,1.4l2.4,3.2l1.6-1.2l-2.1-2.8h5.1V543z"/>
<path class="st1" d="M-947,529h24v24h-24V529z"/>
</svg>
